<?xml version="1.0" standalone="no"?>
<!DOCTYPE svg PUBLIC "-//W3C//DTD SVG 20010904//EN"
 "http://www.w3.org/TR/2001/REC-SVG-20010904/DTD/svg10.dtd">
<svg version="1.0" xmlns="http://www.w3.org/2000/svg"
 width="1200.000000pt" height="1200.000000pt" viewBox="0 0 1200.000000 1200.000000"
 preserveAspectRatio="xMidYMid meet">
<metadata>
Created by potrace 1.14, written by Peter Selinger 2001-2017
</metadata>
<g transform="translate(0.000000,1200.000000) scale(0.100000,-0.100000)"
fill="#000000" stroke="none">
<path d="M5968 8745 c-2 -1 -34 -5 -73 -8 -100 -9 -183 -29 -270 -67 -42 -18
-175 -80 -295 -138 -135 -64 -285 -136 -420 -200 -47 -22 -138 -65 -203 -96
-65 -31 -122 -56 -127 -56 -6 0 -10 -4 -10 -10 0 -5 -3 -9 -7 -8 -8 2 -41 -13
-238 -107 -49 -24 -148 -71 -220 -105 -71 -34 -164 -78 -205 -97 -41 -19 -122
-58 -180 -85 -58 -28 -145 -70 -195 -93 -49 -24 -144 -69 -210 -100 -66 -31
-152 -72 -192 -91 -76 -35 -225 -106 -383 -181 -361 -172 -406 -198 -485 -286
-31 -34 -72 -93 -90 -132 -69 -144 -65 -36 -65 -1651 0 -1007 3 -1477 11
-1515 13 -65 17 -83 19 -86 2 -2 3 -6 5 -10 5 -20 22 -53 53 -108 83 -143 256
-260 420 -282 26 -3 1564 -6 3417 -6 l3370 0 82 27 c194 63 339 212 398 406
20 63 20 101 20 1555 0 820 -4 1506 -8 1525 -10 47 -15 64 -17 68 -2 1 -3 5
-4 10 -6 28 -50 109 -84 154 -71 95 -136 144 -292 220 -143 69 -215 102 -222
100 -5 -1 -8 3 -8 8 0 6 -4 10 -9 10 -10 0 -88 36 -333 153 -227 109 -244 117
-256 117 -7 0 -12 5 -12 10 0 6 -4 10 -10 10 -5 0 -63 25 -127 56 -65 31 -154
73 -198 94 -44 21 -138 65 -210 100 -71 34 -161 77 -200 95 -69 33 -214 102
-450 215 -66 32 -156 74 -200 95 -44 21 -138 66 -210 100 -71 34 -155 74 -185
88 -30 13 -107 49 -170 80 -206 98 -310 147 -314 147 -3 0 -17 5 -33 12 -15 6
-32 12 -38 13 -5 2 -30 8 -55 16 -54 15 -64 17 -115 24 -52 7 -163 14 -167 10z"/>
</g>
</svg>
